<svg width="72" height="14" viewBox="0 0 72 14" fill="none" xmlns="http://www.w3.org/2000/svg">
<g clip-path="url(#clip0_16_424)">
<path fill-rule="evenodd" clip-rule="evenodd" d="M47.4525 7.71075C47.4952 7.99075 47.5165 8.20613 47.5805 8.42152C48.0497 10.4246 49.6066 11.76 51.6326 11.9323C53.4241 12.0831 54.8317 11.3938 55.8767 9.90767C56.3886 9.1969 57.2203 9.06767 57.8814 9.64921C58.2653 9.97229 58.308 10.4031 58.0094 10.8123C57.8388 11.0277 57.6895 11.2431 57.5189 11.48C56.8364 12.4277 55.9407 13.0738 54.8317 13.4615C53.0402 14.0861 51.2487 14.1723 49.4786 13.5046C47.09 12.6215 45.6824 10.8554 45.2772 8.33536C45.0426 6.7846 45.1919 5.23383 45.8956 3.83383C46.9193 1.83075 48.5189 0.603057 50.7369 0.236903C52.2085 -1.96695e-05 53.6587 0.15075 55.0236 0.818442C56.9644 1.7446 58.1374 3.3169 58.5852 5.40613C58.7132 5.98767 58.7559 6.56921 58.7985 7.15075C58.8412 7.5169 58.6705 7.66767 58.308 7.68921C58.1374 7.68921 57.9881 7.68921 57.8175 7.68921C54.5118 7.68921 51.2061 7.68921 47.9217 7.68921C47.7724 7.71075 47.6658 7.71075 47.4525 7.71075ZM56.4739 5.51383C56.1966 3.63998 53.9573 2.00306 51.8885 2.13229C49.7345 2.26152 47.6018 3.91998 47.5165 5.51383C50.481 5.51383 53.4881 5.51383 56.4739 5.51383Z" fill="#CECECE"/>
<path fill-rule="evenodd" clip-rule="evenodd" d="M30.5189 7.64614C30.5402 7.83999 30.5615 7.96922 30.5829 8.11999C30.9881 10.3385 32.7796 11.8677 34.9976 11.9108C36.6824 11.9323 37.9833 11.2431 38.9644 9.86461C39.4762 9.1323 40.3933 9.04614 41.0331 9.6923C41.3317 10.0154 41.3957 10.4031 41.0971 10.7908C40.9691 10.9846 40.8412 11.1569 40.6919 11.3077C39.9668 12.3846 38.9644 13.0738 37.7487 13.4831C35.9573 14.0861 34.1658 14.1292 32.4383 13.44C29.9644 12.4708 28.5781 10.5538 28.2796 7.88307C28.1303 6.59076 28.2582 5.34153 28.7914 4.15691C29.8364 1.91691 31.5213 0.538449 33.9739 0.215372C35.2748 0.0430641 36.5758 0.150756 37.7701 0.646141C39.9454 1.55076 41.2037 3.2523 41.6942 5.55691C41.7796 6.07384 41.8435 6.63384 41.8649 7.15076C41.8862 7.58153 41.8009 7.66768 41.353 7.66768C40.5852 7.66768 39.7748 7.66768 38.9857 7.66768C36.3412 7.66768 33.6966 7.66768 31.0947 7.66768C30.9028 7.64614 30.7322 7.64614 30.5189 7.64614ZM39.5829 5.44922C39.3056 3.59691 37.1303 2.0246 34.9976 2.06768C32.9288 2.11076 30.7748 3.79076 30.6042 5.44922C33.59 5.44922 36.5544 5.44922 39.5829 5.44922Z" fill="#CECECE"/>
<path fill-rule="evenodd" clip-rule="evenodd" d="M67.6279 8.63692C67.7985 8.78768 67.8838 8.87384 67.9905 8.95999C69.1421 9.95076 70.2938 10.9415 71.4241 11.9323C71.4881 11.9969 71.5947 12.0831 71.6587 12.1477C72.0853 12.5785 72.1279 13.2031 71.7227 13.6338C71.3388 14.0646 70.7417 14.1292 70.2938 13.7631C69.4834 13.0954 68.7156 12.4061 67.9265 11.7385C66.7962 10.7692 65.6872 9.79999 64.5568 8.83076C64.4715 8.74461 64.3436 8.65845 64.1729 8.52922C64.1729 8.76615 64.1516 8.91691 64.1516 9.06768C64.1516 11.8031 64.1516 9.75692 64.1516 12.4923C64.1516 12.6215 64.1516 12.7508 64.1516 12.88C64.109 13.4831 63.6611 13.9138 63.0639 13.8708C62.4881 13.8492 62.1042 13.4185 62.0829 12.8154C62.0829 12.6861 62.0829 12.5569 62.0829 12.4277C62.0829 7.02153 62.0829 6.39692 62.0829 0.990761C62.0829 0.818453 62.0829 0.667684 62.0829 0.495376C62.0829 0.107684 62.1255 0.0430686 62.4881 0.0430686C62.9786 0.0215301 63.4691 0.0215301 63.9597 0.0215301C65.1327 0.0215301 66.3483 0.0646071 67.5213 -8.33394e-06C69.5047 -0.0861622 71.7227 1.52922 71.936 3.87692C72.1279 5.98768 70.699 7.99076 68.5663 8.42153C68.2891 8.48615 67.9905 8.5723 67.6279 8.63692ZM64.0236 6.97845C64.1516 6.99999 64.2369 6.99999 64.3009 6.99999C65.2819 6.99999 66.2843 6.99999 67.2654 6.99999C67.5426 6.99999 67.8412 6.97845 68.1184 6.87076C69.0355 6.59076 69.7606 6.03076 69.9952 5.03999C70.4004 3.33845 69.1421 1.78768 67.4146 1.78768C66.3909 1.78768 65.3886 1.78768 64.3436 1.78768C64.2156 1.78768 64.109 1.80922 63.981 1.80922C64.0236 3.5323 64.0236 5.23384 64.0236 6.97845Z" fill="#CECECE"/>
<path fill-rule="evenodd" clip-rule="evenodd" d="M22.8411 7.66768C20.8791 7.66768 18.981 7.66768 17.0402 7.66768C17.0402 7.83999 17.0189 7.99076 17.0189 8.14153C17.0189 9.64922 17.0189 11.1354 17.0189 12.6431C17.0189 12.8369 17.0189 13.0308 16.9762 13.1815C16.8269 13.6338 16.3577 13.9138 15.9099 13.8923C15.4194 13.8492 15.0141 13.4615 14.9502 12.9661C14.9288 12.8369 14.9502 12.7292 14.9502 12.6C14.9502 7.23691 14.9288 6.59076 14.9288 1.24922C14.9288 1.03384 14.9502 0.818453 15.0141 0.624607C15.1848 0.1723 15.654 -0.0861619 16.1445 -0.0215465C16.5923 0.0430689 16.9762 0.430761 17.0189 0.904607C17.0402 1.05538 17.0189 1.18461 17.0189 1.33538C17.0189 4.0923 17.0402 2.1323 17.0402 4.88922C17.0402 5.06153 17.0615 5.2123 17.0615 5.36307C17.4241 5.44922 22.4573 5.44922 22.8411 5.36307C22.8411 5.23384 22.8625 5.10461 22.8625 4.95384C22.8625 3.74768 22.8625 2.51999 22.8625 1.31384C22.8625 1.18461 22.8625 1.07691 22.8625 0.947684C22.9051 0.409223 23.3103 -8.03545e-06 23.8435 -0.0215465C24.3767 -0.043085 24.8672 0.366146 24.9312 0.904607C24.9525 1.03384 24.9312 1.14153 24.9312 1.27076C24.9312 5.03999 24.9312 8.78768 24.9312 12.5569C24.9312 12.6861 24.9312 12.7938 24.9312 12.9231C24.8672 13.4615 24.398 13.8923 23.8648 13.8708C23.3317 13.8492 22.9051 13.4185 22.8411 12.88C22.8411 12.7508 22.8411 12.6431 22.8411 12.5138C22.8411 11.0708 22.8411 9.58461 22.8411 8.14153C22.8411 8.0123 22.8411 7.86153 22.8411 7.66768Z" fill="#CECECE"/>
<path fill-rule="evenodd" clip-rule="evenodd" d="M5.8649 13.9785C4.47865 13.9569 3.1777 13.6554 1.98339 12.9231C1.47154 12.6215 1.00234 12.2338 0.618457 11.7815C0.426514 11.5446 0.191916 11.3077 0.106608 11.0061C-0.0213538 10.6185 -0.0426808 10.1877 0.319878 9.84307C0.725092 9.45538 1.27959 9.30461 1.8341 9.67076C2.36727 10.0585 2.6232 10.5538 3.07106 11.0061C3.71087 11.6523 4.54263 11.9969 5.43836 12.1046C6.27011 12.1908 7.08054 12.1692 7.89097 11.8892C8.21087 11.76 8.55211 11.6092 8.82936 11.3938C9.3412 10.8123 9.49049 9.99384 8.87201 9.43384C8.57343 9.17538 8.18955 8.98153 7.80566 8.80922C6.86727 8.39999 5.88623 8.11999 4.90519 7.86153C4.09476 7.66768 3.32699 7.40922 2.51656 7.1723C2.21798 7.08615 1.9194 6.91384 1.64215 6.76307C0.895708 6.35384 0.469168 5.70768 0.341205 4.88922C0.106608 3.18769 0.725092 1.65845 2.19666 0.904608C4.49997 -0.23693 6.8886 -0.129238 9.19192 1.18461C9.61846 1.42153 10.0237 1.78769 10.3862 2.11076C10.6635 2.34769 10.8767 2.6923 10.9834 3.05845C11.09 3.51076 10.8767 3.98461 10.3222 4.11384C9.85305 4.22153 9.42651 4.07076 9.08528 3.70461C9.0213 3.63999 8.95732 3.55384 8.91466 3.48922C8.38149 2.67076 7.59239 2.21845 6.654 2.04615C5.71561 1.87384 4.77722 1.89538 3.88149 2.26153C3.56158 2.39076 3.22035 2.56307 2.96443 2.79999C2.58054 3.31692 2.43125 4.00615 2.9431 4.6523C3.34831 5.03999 3.81751 5.25538 4.32936 5.36307C5.45969 5.64307 6.61135 5.94461 7.74168 6.22461C8.4668 6.41845 9.17059 6.65538 9.83173 7.04307C10.6848 7.49538 11.3033 8.16307 11.5166 9.1323C11.7725 10.3169 11.5166 11.4369 10.5995 12.2985C9.55447 13.2461 8.36016 13.7631 6.97391 13.9138C6.59002 13.9569 6.20613 13.9569 5.8649 13.9785Z" fill="#CECECE"/>
</g>
<defs>
<clipPath id="clip0_16_424">
<rect width="72" height="14" fill="white"/>
</clipPath>
</defs>
</svg>
