<svg width="24" height="24" viewBox="0 0 24 24" fill="none" xmlns="http://www.w3.org/2000/svg">
<path d="M19.9 8.7C19.9 8.5 19.8 8.4 19.7 8.3L13.7 2.3C13.6 2.2 13.5 2.2 13.4 2.1H13.3C13.3 2.1 13.2 2 13.1 2H7C5.3 2 4 3.3 4 5V19C4 20.7 5.3 22 7 22H17C18.7 22 20 20.7 20 19V9C20 9 20 9 20 8.9C20 8.8 20 8.8 19.9 8.7ZM14 5.4L16.6 8H15C14.4 8 14 7.6 14 7V5.4ZM18 19C18 19.6 17.6 20 17 20H7C6.4 20 6 19.6 6 19V5C6 4.4 6.4 4 7 4H12V7C12 8.7 13.3 10 15 10H18V19Z" fill="#8A6860"/>
<path d="M7.19922 12.7001C7.49922 12.6001 7.79922 12.6001 8.39922 12.6001C8.89922 12.6001 9.29922 12.7001 9.59922 13.0001C9.79922 13.3001 9.99922 13.7001 9.99922 14.2001C9.99922 14.7001 9.89922 15.1001 9.59922 15.4001C9.29922 15.8001 8.79922 16.0001 8.29922 16.0001C8.19922 16.0001 8.09922 16.0001 7.99922 16.0001V17.8001H7.19922V12.7001ZM7.99922 15.0001C8.09922 15.0001 8.19922 15.0001 8.29922 15.0001C8.79922 15.0001 8.99922 14.7001 8.99922 14.2001C8.99922 13.7001 8.79922 13.5001 8.29922 13.5001C8.09922 13.5001 7.99922 13.5001 7.89922 13.5001V15.0001H7.99922Z" fill="#8A6860"/>
<path d="M10.5 12.7001C10.8 12.6001 11.2 12.6001 11.7 12.6001C12.4 12.6001 12.9 12.8001 13.3 13.1001C13.7 13.5001 14 14.1001 14 15.0001C14 16.0001 13.7 16.7001 13.4 17.1001C13 17.5001 12.4 17.8001 11.6 17.8001C11.1 17.8001 10.8 17.8001 10.6 17.7001V12.7001H10.5ZM11.4 16.9001C11.5 16.9001 11.6 16.9001 11.7 16.9001C12.5 16.9001 13 16.3001 13 15.1001C13 14.0001 12.5 13.5001 11.8 13.5001C11.6 13.5001 11.5 13.5001 11.4 13.5001V16.9001Z" fill="#8A6860"/>
<path d="M14.5 12.7002H16.9V13.6002H15.4V14.8002H16.8V15.7002H15.4V17.8002H14.5V12.7002Z" fill="#8A6860"/>
</svg>
