<svg width="109" height="109" viewBox="0 0 109 109" fill="none" xmlns="http://www.w3.org/2000/svg">
<path d="M44.5 5.7735C50.688 2.20085 58.312 2.20085 64.5 5.7735L91.6984 21.4765C97.8864 25.0492 101.698 31.6517 101.698 38.797V70.203C101.698 77.3483 97.8864 83.9508 91.6984 87.5235L64.5 103.226C58.312 106.799 50.688 106.799 44.5 103.226L17.3016 87.5235C11.1136 83.9508 7.30162 77.3483 7.30162 70.203V38.797C7.30162 31.6517 11.1136 25.0492 17.3016 21.4765L44.5 5.7735Z" fill="white"/>
<g clip-path="url(#clip0_53_275)">
<path d="M48.5461 54.6979H41.2341C41.1595 54.6979 41.1222 54.7356 41.0849 54.811C40.8984 58.1679 40.2642 61.7511 39.3689 64.6931C39.3689 64.7309 39.3689 64.7686 39.4062 64.8063C39.4435 64.844 39.4808 64.844 39.5181 64.844H42.0176C42.0922 64.844 42.1295 64.8063 42.1295 64.7686C42.8383 62.5055 43.3979 59.5635 43.6217 57.0741H46.0093V64.7309C46.0093 64.8063 46.0839 64.8817 46.1585 64.8817H48.5461C48.6207 64.8817 48.6953 64.8063 48.6953 64.7309V54.811C48.6953 54.7356 48.6207 54.6979 48.5461 54.6979ZM79.4725 54.6979H77.0849C77.0103 54.6979 76.9357 54.7733 76.9357 54.8487V62.5055C76.4134 62.6564 75.8911 62.7318 75.2943 62.7318C73.7274 62.7318 73.3544 62.2415 73.3544 60.1293V54.8487C73.3544 54.7733 73.2798 54.6979 73.2051 54.6979H70.8549C70.7803 54.6979 70.7057 54.7733 70.7057 54.8487V60.3933C70.7057 63.8633 71.8621 65.1835 74.8093 65.1835C76.488 65.1835 78.3906 64.7309 79.5098 64.316C79.5471 64.2782 79.5844 64.2405 79.5844 64.2028V54.8487C79.6217 54.7356 79.5471 54.6979 79.4725 54.6979ZM28.886 54.6979H26.4611C26.3865 54.6979 26.3492 54.7356 26.3492 54.811C25.9761 56.3197 25.1927 58.8846 24.1481 61.5625L21.7233 54.811C21.686 54.7733 21.6487 54.7356 21.6113 54.7356H19.1492C19.1119 54.7356 19.0746 54.7733 19.0373 54.811C19 54.8487 19 54.8865 19.0373 54.9242L22.6932 65.0326C22.3202 65.8247 21.9844 66.4659 21.6487 67.0694C21.3875 67.522 21.1637 67.9746 20.9398 68.4272C20.9025 68.465 20.9025 68.5027 20.9398 68.5404C20.9772 68.5781 21.0145 68.6158 21.0518 68.6158H23.7005C23.7378 68.6158 23.8124 68.5781 23.8124 68.5404C24.2601 67.6729 24.8196 66.4659 25.3419 65.2212C26.9088 61.5248 28.1398 58.0548 29.0725 54.8865C29.0725 54.8487 29.0725 54.811 29.0352 54.7733C28.9606 54.6979 28.9233 54.6979 28.886 54.6979ZM37.5782 62.5055C37.5782 62.4678 37.5409 62.4301 37.5036 62.4301H37.3917C36.7948 62.6564 35.7129 62.8072 34.9668 62.8072C33.288 62.8072 32.5046 62.3546 32.5046 59.7898C32.5046 57.7153 32.7658 56.7724 34.9668 56.7724C35.601 56.7724 36.1606 56.8478 36.9067 57.0741C36.9813 57.0741 37.0186 57.0741 37.0559 56.9987C37.3171 56.4706 37.6528 55.8294 38.0259 55.0373V54.9242C38.0259 54.8865 37.9886 54.8487 37.9512 54.8487C36.9813 54.547 35.8248 54.3584 34.7803 54.3584C31.3108 54.3584 29.744 56.018 29.744 59.7521C29.744 63.5239 31.3108 65.2212 34.7803 65.2212C35.6383 65.2212 37.3917 65.0326 38.2124 64.6931C38.287 64.6554 38.3243 64.58 38.287 64.5046L37.5782 62.5055ZM60.2974 54.6979H57.8725C57.7979 54.6979 57.7606 54.7356 57.7606 54.811C57.3875 56.3575 56.6041 58.8846 55.5595 61.5625L53.1347 54.811C53.0974 54.7733 53.0601 54.7356 53.0227 54.7356H50.5606C50.5233 54.7356 50.486 54.7733 50.4487 54.811C50.4114 54.8487 50.4114 54.8865 50.4487 54.9242L54.1046 65.0326C53.7316 65.8247 53.3958 66.4659 53.0601 67.0694C52.7989 67.522 52.5751 67.9746 52.3512 68.4649C52.3139 68.5027 52.3139 68.5404 52.3512 68.5781C52.3886 68.6158 52.4259 68.6535 52.4632 68.6535H55.1119C55.1492 68.6535 55.2238 68.6158 55.2238 68.5781C55.6715 67.7106 56.231 66.5036 56.7533 65.2589C58.2829 61.5625 59.5512 58.0925 60.4839 54.9242C60.4839 54.8865 60.4839 54.8487 60.4466 54.811C60.372 54.6979 60.3347 54.6979 60.2974 54.6979ZM69.2507 54.6979H62.2C62.1253 54.6979 62.0507 54.7733 62.0507 54.8487V64.7686C62.0507 64.844 62.1253 64.9195 62.2 64.9195H64.5875C64.6621 64.9195 64.7367 64.844 64.7367 64.7686V57.1118H68.43C68.4673 57.1118 68.5419 57.0741 68.5419 57.0364C68.8404 56.3575 69.1015 55.6408 69.4 54.9242V54.811C69.3253 54.6979 69.288 54.6979 69.2507 54.6979Z" fill="#EF4058"/>
<path d="M31.7212 39.4597C28.2891 39.4597 26.9461 40.9684 26.9461 44.778C26.9461 48.6629 28.2891 50.1716 31.7212 50.1716C35.1907 50.1716 36.5337 48.6629 36.5337 44.778C36.5337 40.9307 35.1907 39.4597 31.7212 39.4597ZM31.7212 47.9463C30.1544 47.9463 29.6694 47.5314 29.6694 44.8157C29.6694 41.9491 30.1917 41.6851 31.7212 41.6851C33.2881 41.6851 33.8104 41.9491 33.8104 44.8157C33.8104 47.5314 33.3254 47.9463 31.7212 47.9463ZM46.0839 47.5314C46.0839 47.4937 46.0466 47.4559 46.0093 47.4559H45.8974C45.3005 47.6822 44.2187 47.8331 43.4725 47.8331C41.7938 47.8331 41.0104 47.3805 41.0104 44.8157C41.0104 42.7412 41.2715 41.7982 43.4725 41.7982C44.1067 41.7982 44.6663 41.8737 45.4124 42.1C45.487 42.1 45.5244 42.1 45.5617 42.0245C45.8228 41.4965 46.1586 40.8553 46.5316 40.0632V39.95C46.5316 39.9123 46.4943 39.8746 46.457 39.8746C45.487 39.5729 44.3306 39.3843 43.286 39.3843C39.8166 39.3843 38.2497 41.0439 38.2497 44.778C38.2497 48.5498 39.8166 50.2471 43.286 50.2471C44.144 50.2471 45.8974 50.0585 46.7181 49.719C46.7927 49.6813 46.8301 49.6059 46.7927 49.5304L46.0839 47.5314ZM26.2 39.7237H19.1492C19.0746 39.7237 19 39.7992 19 39.8746V49.7945C19 49.8699 19.0746 49.9453 19.1492 49.9453H21.5368C21.6114 49.9453 21.686 49.8699 21.686 49.7945V42.1H25.342C25.3793 42.1 25.4539 42.0623 25.4539 42.0245C25.7523 41.3456 26.0135 40.629 26.3119 39.9123V39.7992C26.2746 39.7615 26.2373 39.7237 26.2 39.7237Z" fill="#1466AC"/>
<path d="M90.6269 63.8256V63.6747C90.6269 63.5992 90.6269 63.4861 90.6643 63.4107C90.7762 62.0151 90.8508 60.3178 90.9254 58.3564V58.2056C90.9627 56.8854 91 55.4521 91 53.9811C91 52.5101 90.9627 51.0769 90.9254 49.7567V49.6058C90.8508 47.6822 90.7762 45.9472 90.6643 44.5516C90.6643 44.4762 90.6642 44.363 90.6269 44.2876V44.1367C90.6269 43.9859 90.5896 43.8727 90.5896 43.7218V43.571C90.4777 42.1 90.4031 41.1947 90.3658 41.1193C90.3658 40.9684 90.3285 40.8175 90.3285 40.7044V40.5912C90.2912 40.3272 90.2539 40.1009 90.1793 39.8369C90.1793 39.7992 90.1793 39.7614 90.142 39.7237C89.5078 36.6686 87.829 33.3116 85.7399 30.7845C84.9192 29.8039 84.0611 28.9364 83.1658 28.2574C83.0912 28.182 82.0466 27.4276 80.4052 26.2584C78.5026 24.9382 75.7793 23.0901 72.6829 21.2796C67.1617 17.9981 62.2746 15.6973 61.6031 15.4333C61.5658 15.4333 61.5658 15.3956 61.5658 15.3956C60.1109 14.7544 58.3575 14.3017 56.4549 14.1132C56.0819 14.0754 55.7088 14.0377 55.3358 14.0377C54.9627 14 54.6269 14 54.2912 14H53.7689C51.2321 14.0754 48.8819 14.5281 47.0166 15.3956C46.7554 15.5087 41.7938 17.8095 36.1606 21.1664L35.9368 21.2796C30.1544 24.7119 25.6404 28.1066 25.4539 28.2574C24.0363 29.3135 22.7679 30.6714 21.6114 32.4064C21.3503 32.7836 21.3503 33.7643 22.4694 33.7643H25.342C26.5731 33.7643 26.8715 33.0099 28.2518 31.9915C29.7814 30.86 32.8031 28.5969 38.3244 25.2777C42.3161 22.9015 46.0466 21.0156 47.8746 20.148C47.9119 20.148 47.9492 20.1103 47.9865 20.1103C47.9865 20.1103 48.0238 20.1103 48.0238 20.0726C48.0238 20.0726 48.0611 20.0726 48.0611 20.0349C48.0984 20.0349 48.1358 19.9972 48.1358 19.9972C48.1731 19.9972 48.2104 19.9595 48.2477 19.9595C48.6953 19.7331 48.9938 19.62 48.9938 19.62C50.2622 19.0542 52.0529 18.677 53.9554 18.6393H54.7016C55.2611 18.6393 55.8207 18.677 56.343 18.7525C57.4995 18.9033 58.544 19.1297 59.4021 19.5068C59.4767 19.5446 59.5886 19.5823 59.6632 19.62C59.6632 19.62 59.7005 19.6577 59.8124 19.6954C60.6705 20.0726 65.2964 22.298 70.3326 25.2777C73.3171 27.0504 75.9658 28.8232 77.7938 30.1056C79.3979 31.2372 80.3679 31.9538 80.4052 31.9915C81.114 32.5196 81.8228 33.2739 82.4943 34.1037C84.1731 36.2914 85.5534 39.2711 85.7772 41.5719C85.7772 41.6096 85.8891 42.5149 86.001 44.0613C86.001 44.1744 86.001 44.2499 86.0383 44.363V44.5893C86.0383 44.7402 86.0756 44.8534 86.0756 45.0042V45.1551C86.0756 45.2306 86.0756 45.3437 86.113 45.4191C86.113 45.6077 86.1503 45.7963 86.1503 45.9849C86.1503 46.0981 86.1503 46.2112 86.1876 46.3244V46.3998C86.1876 46.5507 86.1876 46.6638 86.2249 46.8147V47.1165C86.3368 49.0778 86.4114 51.4163 86.4114 53.868C86.4114 56.3197 86.3368 58.6582 86.2249 60.6195V60.9213C86.2249 61.0721 86.2249 61.1853 86.1876 61.3362V61.4116C86.1876 61.5247 86.1876 61.6379 86.1503 61.7511C86.1503 61.9397 86.113 62.1282 86.113 62.3168C86.113 62.43 86.113 62.5054 86.0756 62.5809V62.7317C86.0756 62.8826 86.0383 62.9958 86.0383 63.1466V63.3729C86.0383 63.4861 86.0383 63.5992 86.001 63.6747C85.8891 65.2211 85.7772 66.1641 85.7772 66.1641C85.5534 68.4649 84.1731 71.4446 82.4943 73.6323C81.8228 74.4998 81.114 75.2164 80.4052 75.7445C80.3679 75.7445 79.3979 76.4988 77.7938 77.6304C75.9658 78.9128 73.2798 80.6855 70.3326 82.4583C65.2964 85.4757 60.6332 87.6634 59.8124 88.0406L59.6632 88.116C59.5886 88.1537 59.4767 88.1914 59.4021 88.2291C58.544 88.5686 57.4995 88.8326 56.343 88.9835C55.8207 89.0589 55.2611 89.0967 54.7016 89.0967H53.9554C52.0529 89.0589 50.2622 88.7195 48.9938 88.116C48.9938 88.116 48.7326 88.0028 48.2477 87.7765C48.2104 87.7388 48.1358 87.7388 48.0984 87.7011C48.0611 87.6634 48.0238 87.6634 47.9865 87.6256C47.9492 87.6256 47.9492 87.5879 47.9119 87.5879C47.8746 87.5879 47.8373 87.5502 47.8 87.5502C47.7627 87.5125 47.7254 87.5125 47.6508 87.4748H47.6135C45.7109 86.7204 42.1295 84.91 38.3244 82.6469C32.7658 79.3654 29.7814 77.0646 28.2518 75.933C26.8715 74.9147 26.5731 74.1603 25.342 74.1603H22.4694C21.3503 74.1603 21.3503 75.141 21.6114 75.5182C22.7679 77.2532 24.0363 78.611 25.4539 79.6671C25.6404 79.818 30.1917 83.2126 35.9368 86.645C36.2352 86.8336 36.5337 87.0222 36.8694 87.173C42.2041 90.2659 46.7927 92.3781 47.0539 92.529C48.8819 93.3588 51.2694 93.8491 53.8062 93.9246H54.3285C54.6642 93.9246 55 93.9246 55.3358 93.8868C55.7088 93.8868 56.0819 93.8491 56.4549 93.8114C58.3575 93.6228 60.1482 93.1702 61.5658 92.529C61.5658 92.529 61.6031 92.529 61.6031 92.4913C62.2373 92.1895 67.1617 89.8887 72.6456 86.645C75.742 84.7968 78.4653 82.9863 80.3679 81.6662C82.0093 80.4969 83.0539 79.7426 83.1285 79.6671C84.0238 78.9882 84.8819 78.1207 85.7026 77.14C87.7917 74.6129 89.4705 71.256 90.1047 68.2008C90.1047 68.1631 90.1047 68.1254 90.142 68.0877C90.1793 67.8237 90.2539 67.5596 90.2912 67.3333V67.2202C90.3285 67.0693 90.3285 66.9184 90.3285 66.8053C90.3285 66.7298 90.4404 65.8246 90.5523 64.3536V64.2027C90.6269 64.0896 90.6269 63.9764 90.6269 63.8256Z" fill="url(#paint0_linear_53_275)"/>
</g>
<defs>
<linearGradient id="paint0_linear_53_275" x1="56.2333" y1="14" x2="56.2333" y2="93.9936" gradientUnits="userSpaceOnUse">
<stop offset="0.398" stop-color="#1466AC"/>
<stop offset="0.659" stop-color="#EF4058"/>
</linearGradient>
<clipPath id="clip0_53_275">
<rect width="72" height="80" fill="white" transform="translate(19 14)"/>
</clipPath>
</defs>
</svg>
