<svg width="10" height="17" viewBox="0 0 10 17" fill="none" xmlns="http://www.w3.org/2000/svg">
<g clip-path="url(#clip0_53_154)">
<path fill-rule="evenodd" clip-rule="evenodd" d="M6.67908 0.27099C8.97896 1.10687 10.1536 3.61736 9.30379 5.87965C8.45402 8.14194 5.90182 9.29734 3.60193 8.4586C1.30205 7.62558 0.130356 5.11509 0.977224 2.8528C1.82699 0.590507 4.3821 -0.564889 6.67908 0.27099ZM5.78291 2.65881C6.74288 3.00685 7.23302 4.05384 6.8763 4.99813C6.52247 5.93956 5.45808 6.42169 4.49811 6.07364C3.53813 5.7256 3.04799 4.67861 3.40472 3.73432C3.76145 2.79289 4.82583 2.31076 5.78291 2.65881Z" fill="#593336"/>
<path fill-rule="evenodd" clip-rule="evenodd" d="M5.59747 11.842C6.06151 12.3155 6.04701 13.0772 5.56267 13.5337L2.36952 16.552C1.88808 17.0084 1.11372 16.9913 0.649678 16.5177C0.185641 16.0442 0.203042 15.2825 0.684481 14.8289L3.87764 11.8106C4.36197 11.3541 5.13344 11.3684 5.59747 11.842Z" fill="#593336"/>
<path fill-rule="evenodd" clip-rule="evenodd" d="M4.51857 11.8021C5.00001 11.3457 5.77437 11.3628 6.23551 11.8364L9.30685 14.9773C9.77089 15.4509 9.75639 16.2126 9.27495 16.669C8.79351 17.1255 8.01915 17.1084 7.55511 16.6348L4.48377 13.491C4.02263 13.0174 4.03713 12.2586 4.51857 11.8021Z" fill="#593336"/>
<path fill-rule="evenodd" clip-rule="evenodd" d="M9.19079 9.06617C9.83175 9.3001 10.1566 9.99619 9.92165 10.6267C9.79694 10.9604 9.53882 11.2058 9.2285 11.3313C6.25576 12.9517 3.48314 12.6265 0.809123 11.2429C0.168172 11.0118 -0.159554 10.3129 0.0782646 9.68238C0.316084 9.05476 1.02664 8.73239 1.66469 8.96347C1.7372 8.98914 1.8068 9.02338 1.87351 9.06046C4.06608 10.3328 6.10785 10.1417 8.0713 9.1974C8.39033 8.98629 8.80506 8.92353 9.19079 9.06617Z" fill="#593336"/>
</g>
<defs>
<clipPath id="clip0_53_154">
<rect width="10" height="17" fill="white"/>
</clipPath>
</defs>
</svg>
