<svg width="50" height="50" viewBox="0 0 50 50" fill="none" xmlns="http://www.w3.org/2000/svg">
<g clip-path="url(#clip0_53_290)">
<path d="M25 50C38.8071 50 50 38.8071 50 25C50 11.1929 38.8071 0 25 0C11.1929 0 0 11.1929 0 25C0 38.8071 11.1929 50 25 50Z" fill="#C69D81"/>
<path d="M32.7616 23.2419L22.2556 16.0378C21.7839 15.6947 21.2693 15.5232 20.8834 15.5232C20.0686 15.5232 19.5969 16.1664 19.5969 17.1956V32.7616C19.5969 33.8337 20.0686 34.434 20.8405 34.434C21.2693 34.434 21.741 34.2625 22.2127 33.9194L32.7187 26.7153C33.4048 26.2436 33.7908 25.6433 33.7908 24.9572C33.7908 24.271 33.4477 23.7136 32.7616 23.2419Z" fill="white"/>
</g>
<defs>
<clipPath id="clip0_53_290">
<rect width="50" height="50" fill="white"/>
</clipPath>
</defs>
</svg>
