<svg width="16" height="9" viewBox="0 0 16 9" fill="none" xmlns="http://www.w3.org/2000/svg">
<g clip-path="url(#clip0_53_160)">
<path d="M0.153132 1.34461C0.0185835 1.00481 -0.153339 0.650558 0.254043 0.458972C1.08002 0.448127 1.90599 0.437283 2.73571 0.426438C3.0945 0.437283 3.25895 0.693936 3.44956 1.05181C4.00644 2.08926 4.58574 3.12311 5.28464 4.07381C5.51263 4.38469 5.89758 4.50398 6.20032 4.00874C6.23395 3.34 6.26759 2.67125 6.30123 2.00251C6.18911 1.22532 5.9088 0.766233 5.41919 0.71924C5.13888 0.455357 5.3407 0.238467 5.9686 0.122792C6.96649 -0.083254 7.83732 0.0107318 8.60349 0.104718C9.25007 0.144481 9.34351 0.567417 9.3323 1.05181C9.30987 1.93744 9.29118 2.82669 9.29118 3.71233C9.48179 4.61242 9.99009 4.25094 10.3265 3.86054C10.9282 3.03274 11.4514 2.22663 11.8887 1.3193C12.3409 0.386675 12.4643 0.455357 12.782 0.451742C13.5407 0.448127 14.3778 0.411979 14.9833 0.433668C16.2466 0.361371 16.1008 0.903597 15.7458 1.47836C15.1328 2.47967 14.3442 3.38338 13.6416 4.33769C13.2155 4.89799 13.223 5.24863 13.6752 5.55228C14.3442 6.2644 15.0693 6.92953 15.6785 7.68865C16.34 8.51645 15.8541 8.74418 15.2375 8.80563C14.5012 8.80563 13.7649 8.80563 13.0286 8.80563C12.4007 8.81648 11.8326 8.66466 11.4327 8.0176C10.5096 6.83555 9.8219 6.51021 9.54533 7.17534C9.42573 7.46814 9.32482 7.86216 9.32856 8.24533C9.3323 8.78033 8.99966 8.82371 8.54743 8.83817C8.06156 8.83817 7.55701 8.95384 7.08609 8.83817C5.41919 8.42969 3.81957 7.6778 2.26105 5.09319C1.55841 3.97621 0.855771 2.75439 0.153132 1.34461Z" fill="#593336"/>
</g>
<defs>
<clipPath id="clip0_53_160">
<rect width="16" height="8.88889" fill="white"/>
</clipPath>
</defs>
</svg>
